<svg width="911" height="911" viewBox="0 0 911 911" fill="none" xmlns="http://www.w3.org/2000/svg">
<path d="M747.475 455.5C747.475 513.247 730.351 569.698 698.268 617.713C666.185 665.728 620.585 703.151 567.233 725.25C513.882 747.349 455.175 753.131 398.537 741.865C341.9 730.599 289.875 702.791 249.041 661.958C208.208 621.124 180.4 569.099 169.134 512.462C157.868 455.824 163.65 397.117 185.749 343.766C207.848 290.414 245.271 244.814 293.286 212.731C341.301 180.648 397.752 163.524 455.499 163.524C532.936 163.524 607.201 194.286 661.957 249.042C716.713 303.798 747.475 378.063 747.475 455.5Z" fill="#FFC800"/>
<path d="M702.383 663.056C726.551 634.297 745.464 601.506 758.257 566.187C794.879 600.139 825.929 639.644 850.268 683.25C800.217 684.35 750.307 677.535 702.383 663.056V663.056Z" fill="#FFC800"/>
<path d="M565.426 759.167C583.109 752.884 600.184 745.006 616.442 735.633C632.48 726.109 647.713 715.293 661.992 703.292C676.338 750.956 683.503 800.491 683.248 850.267C639.544 826.107 599.807 795.383 565.426 759.167V759.167Z" fill="#FFC800"/>
<path d="M399.02 773.439C430.316 778.817 462.221 779.686 493.763 776.02C504.24 774.654 511.072 773.135 511.072 773.135C499.854 821.708 481.103 868.225 455.501 911C429.727 868.316 410.677 821.919 399.02 773.439V773.439Z" fill="#FFC800"/>
<path d="M247.944 702.381C276.672 726.818 309.457 746.037 344.814 759.167C310.853 795.53 271.341 826.278 227.75 850.267C226.698 800.218 233.512 750.315 247.944 702.381V702.381Z" fill="#FFC800"/>
<path d="M151.834 565.427C158.086 583.123 165.964 600.202 175.369 616.443C184.85 632.508 195.669 647.745 207.709 661.993C160.055 676.384 110.513 683.55 60.7344 683.25C84.9356 639.573 115.655 599.843 151.834 565.427V565.427Z" fill="#FFC800"/>
<path d="M137.561 399.17C134.295 417.764 132.77 436.623 133.006 455.5C132.095 469.621 134.828 483.589 134.98 494.218C135.132 504.846 137.865 511.527 137.865 511.527C89.2559 500.197 42.7322 481.29 0 455.5C42.722 429.837 89.1093 410.841 137.561 399.17V399.17Z" fill="#FFC800"/>
<path d="M208.62 248.096C204.5 252.248 200.835 256.829 197.688 261.761C178.279 286.908 162.911 314.929 152.138 344.813C115.692 310.853 84.8429 271.344 60.7344 227.75C110.803 226.527 160.741 233.398 208.62 248.096V248.096Z" fill="#FFC800"/>
<path d="M345.573 151.833C310.178 164.764 277.26 183.662 248.247 207.708C234.102 160.018 227.193 110.474 227.75 60.7334C271.428 84.9326 311.159 115.653 345.573 151.833V151.833Z" fill="#FFC800"/>
<path d="M511.83 137.713C480.536 132.336 448.638 131.416 417.086 134.98C406.762 136.498 399.777 138.016 399.777 138.016C410.963 89.3622 429.769 42.7819 455.5 0C481.134 42.7913 500.126 89.2239 511.83 137.713V137.713Z" fill="#FFC800"/>
<path d="M662.905 208.619C634.205 184.448 601.463 165.533 566.188 152.744C600.13 116.112 639.636 85.0603 683.251 60.7334C684.418 110.799 677.549 160.728 662.905 208.619V208.619Z" fill="#FFC800"/>
<path d="M759.168 345.573C752.82 327.891 744.892 310.816 735.482 294.557C726.027 278.511 715.261 263.276 703.293 249.007C750.957 234.66 800.492 227.496 850.268 227.75C826.068 271.428 795.348 311.159 759.168 345.573V345.573Z" fill="#FFC800"/>
<path d="M773.288 511.982C776.569 493.439 778.145 474.634 777.995 455.804C777.995 441.683 776.173 427.714 775.869 417.238C775.233 411.419 774.269 405.64 772.984 399.929C821.604 411.149 868.171 429.899 911.001 455.5C868.248 481.246 821.806 500.294 773.288 511.982V511.982Z" fill="#FFC800"/>
<path d="M747.323 455.5C747.343 493.836 739.809 531.799 725.152 567.223C710.496 602.646 689.003 634.834 661.903 661.949C634.803 689.063 602.626 710.572 567.21 725.247C531.795 739.922 493.835 747.475 455.499 747.475V747.475C378.062 747.475 303.797 716.714 249.041 661.958C194.285 607.202 163.523 532.937 163.523 455.5C163.523 378.063 194.285 303.798 249.041 249.042C303.797 194.286 378.062 163.524 455.499 163.524V163.524C493.835 163.524 531.795 171.078 567.21 185.753C602.626 200.428 634.803 221.937 661.903 249.051C689.003 276.166 710.496 308.354 725.152 343.777C739.809 379.2 747.343 417.164 747.323 455.5Z" fill="#FFC800"/>
<path d="M850.267 683.25C800.436 684.28 750.763 677.308 703.141 662.601C727.343 633.922 746.261 601.175 759.015 565.883C795.416 599.962 826.212 639.572 850.267 683.25Z" fill="#FFC800"/>
<path d="M683.249 850.267C639.68 826.04 600.053 795.321 565.73 759.167C583.414 752.884 600.489 745.006 616.746 735.633C632.811 726.151 648.048 715.332 662.296 703.292C676.496 750.981 683.557 800.509 683.249 850.267V850.267Z" fill="#FFC800"/>
<path d="M511.071 773.135C500.009 821.757 481.249 868.298 455.5 911C429.869 868.277 411.068 821.813 399.777 773.287C418.312 775.79 436.96 777.361 455.652 777.994C468.583 777.998 481.506 777.339 494.37 776.02C504.239 774.35 511.071 773.135 511.071 773.135Z" fill="#FFC800"/>
<path d="M247.944 702.381C276.672 726.818 309.457 746.037 344.814 759.167C310.853 795.53 271.341 826.278 227.75 850.267C226.698 800.218 233.512 750.315 247.944 702.381V702.381Z" fill="#FFC800"/>
<path d="M151.834 565.427C158.086 583.123 165.964 600.202 175.369 616.443C184.85 632.508 195.669 647.745 207.709 661.993C160.055 676.384 110.513 683.55 60.7344 683.25C84.9356 639.573 115.655 599.843 151.834 565.427V565.427Z" fill="#FFC800"/>
<path d="M137.561 399.17C134.295 417.764 132.77 436.623 133.006 455.5C132.095 469.621 134.828 483.589 134.98 494.218C135.132 504.846 137.865 511.527 137.865 511.527C89.2559 500.197 42.7322 481.29 0 455.5C42.722 429.837 89.1093 410.841 137.561 399.17V399.17Z" fill="#FFC800"/>
<path d="M208.62 248.096C204.5 252.248 200.835 256.829 197.688 261.761C178.279 286.908 162.911 314.929 152.138 344.813C115.692 310.853 84.8429 271.344 60.7344 227.75C110.803 226.527 160.741 233.398 208.62 248.096V248.096Z" fill="#FFC800"/>
<path d="M345.573 151.833C310.178 164.764 277.26 183.662 248.247 207.708C234.102 160.018 227.193 110.474 227.75 60.7334C271.428 84.9326 311.159 115.653 345.573 151.833V151.833Z" fill="#FFC800"/>
<path d="M511.83 137.561C484.652 134.372 467.04 133.158 455.045 133.006C435.61 133.006 429.385 134.828 417.086 135.132C404.788 135.435 399.777 138.016 399.777 138.016C411.192 89.9128 429.989 43.8675 455.5 1.51833V0C481.222 42.6929 500.221 89.0895 511.83 137.561V137.561Z" fill="#FFC800"/>
<path d="M662.905 208.619C634.171 184.459 601.441 165.499 566.188 152.593C600.177 116.053 639.676 85.0583 683.251 60.7334C684.418 110.799 677.549 160.728 662.905 208.619V208.619Z" fill="#FFC800"/>
<path d="M850.268 227.75C825.943 271.3 795.236 310.963 759.168 345.421C752.949 327.663 745.069 310.531 735.633 294.253C726.056 278.251 715.243 263.021 703.293 248.703C750.954 234.376 800.502 227.313 850.268 227.75V227.75Z" fill="#FFC800"/>
<path d="M777.995 455.5C777.995 441.379 776.173 427.563 776.022 416.782C775.87 406.002 773.137 399.473 773.137 399.473C821.718 410.889 868.229 429.79 911.001 455.5C868.305 481.11 821.902 499.958 773.44 511.375C776.652 492.927 778.177 474.224 777.995 455.5V455.5Z" fill="#FFC800"/>
<path d="M511.829 137.561C484.65 134.373 467.038 133.158 455.043 133.006V1.51833L455.498 0C481.22 42.6929 500.219 89.0895 511.829 137.561V137.561Z" fill="#FFDC00"/>
<path d="M493.762 776.02C504.238 774.654 511.071 773.135 511.071 773.135C500.008 821.757 481.248 868.298 455.5 911V777.994C468.279 777.982 481.049 777.324 493.762 776.02V776.02Z" fill="#FFDC00"/>
<path d="M455.5 747.475V163.524C532.937 163.524 607.202 194.286 661.958 249.042C716.714 303.798 747.476 378.063 747.476 455.5C747.476 532.937 716.714 607.202 661.958 661.958C607.202 716.714 532.937 747.475 455.5 747.475V747.475Z" fill="#FFDC00"/>
<path d="M662.752 702.836C676.842 750.695 683.75 800.38 683.249 850.267C639.68 826.04 600.053 795.321 565.73 759.167C583.414 752.884 600.489 745.006 616.746 735.632C632.985 726.027 648.376 715.056 662.752 702.836V702.836Z" fill="#FFDC00"/>
<path d="M662.905 208.619C634.171 184.459 601.441 165.499 566.188 152.593C600.177 116.053 639.676 85.0583 683.251 60.7334C684.418 110.799 677.549 160.728 662.905 208.619V208.619Z" fill="#FFDC00"/>
<path d="M850.267 683.25C800.436 684.28 750.763 677.308 703.141 662.601C727.343 633.922 746.261 601.175 759.015 565.883C795.416 599.962 826.212 639.572 850.267 683.25Z" fill="#FFDC00"/>
<path d="M735.176 294.557C725.599 278.555 714.786 263.325 702.836 249.007C750.627 234.532 800.332 227.365 850.266 227.75C825.941 271.3 795.234 310.963 759.166 345.421C752.784 327.751 744.752 310.721 735.176 294.557V294.557Z" fill="#FFDC00"/>
<path d="M777.995 455.5C777.995 441.379 776.173 427.563 776.022 416.782C775.87 406.002 773.137 399.473 773.137 399.473C821.718 410.889 868.229 429.79 911.001 455.5C868.305 481.11 821.902 499.958 773.44 511.375C776.652 492.927 778.177 474.224 777.995 455.5V455.5Z" fill="#FFDC00"/>
<path d="M713.617 455.5H683.25C683.25 395.097 659.255 337.168 616.544 294.456C573.832 251.745 515.903 227.75 455.5 227.75V197.383C523.957 197.383 589.61 224.578 638.016 272.984C686.422 321.39 713.617 387.043 713.617 455.5Z" fill="white"/>
<path d="M624.186 455.5C624.206 477.658 619.856 499.602 611.386 520.077C602.916 540.552 590.491 559.156 574.823 574.824C559.155 590.492 540.551 602.917 520.076 611.387C499.601 619.857 477.657 624.207 455.499 624.187C411.616 622.871 369.972 604.513 339.398 573.008C308.823 541.502 291.723 499.326 291.723 455.424C291.723 411.522 308.823 369.346 339.398 337.841C369.972 306.335 411.616 287.978 455.499 286.661V286.661C500.251 286.702 543.157 304.508 574.788 336.167C606.418 367.826 624.186 410.748 624.186 455.5V455.5Z" fill="#FFC800"/>
<path d="M455.499 286.661V624.187C411.616 622.87 369.972 604.513 339.398 573.008C308.823 541.502 291.723 499.326 291.723 455.424C291.723 411.522 308.823 369.346 339.398 337.841C369.972 306.335 411.616 287.978 455.499 286.661V286.661Z" fill="#FFDC00"/>
</svg>
