<svg width="973" height="649" viewBox="0 0 973 649" fill="none" xmlns="http://www.w3.org/2000/svg">
<path d="M432.489 263.9C432.489 297.363 422.577 330.075 404.006 357.899C385.436 385.722 359.041 407.408 328.159 420.214C297.277 433.02 263.295 436.371 230.511 429.842C197.727 423.314 167.613 407.2 143.977 383.538C120.341 359.876 104.245 329.728 97.724 296.908C91.2029 264.088 94.5498 230.069 107.341 199.153C120.133 168.237 141.795 141.812 169.588 123.221C197.381 104.63 230.057 94.7071 263.483 94.7071C285.682 94.6903 307.666 99.0551 328.179 107.552C348.691 116.049 367.329 128.511 383.026 144.225C398.723 159.939 411.171 178.598 419.658 199.133C428.146 219.668 432.506 241.677 432.489 263.9V263.9Z" fill="#FFC800"/>
<path d="M406.406 383.948C420.378 367.299 431.326 348.326 438.75 327.892C459.81 347.624 477.629 370.558 491.549 395.85C462.718 396.402 433.983 392.385 406.406 383.948V383.948Z" fill="#FFC800"/>
<path d="M327.145 439.492C337.389 435.85 347.275 431.265 356.676 425.798C366.155 420.37 375.138 414.117 383.523 407.113C391.718 434.855 395.683 463.678 395.284 492.605C369.984 478.505 347.002 460.591 327.145 439.492V439.492Z" fill="#FFC800"/>
<path d="M230.883 447.939C248.996 451.08 267.466 451.597 285.727 449.475C291.735 448.707 295.698 447.811 295.698 447.811C289.06 475.951 278.106 502.891 263.227 527.672C248.428 502.911 237.519 476.019 230.883 447.939V447.939Z" fill="#FFC800"/>
<path d="M143.437 406.857C160.067 420.845 179.019 431.804 199.432 439.237C179.744 460.38 156.832 478.264 131.548 492.221C130.986 463.317 134.999 434.505 143.437 406.857V406.857Z" fill="#FFC800"/>
<path d="M88.0815 327.508C91.8594 337.793 96.6112 347.692 102.272 357.072C107.532 366.541 113.606 375.534 120.425 383.948C92.7134 392.153 63.923 396.122 35.0273 395.722C49.1477 370.418 67.0378 347.416 88.0815 327.508V327.508Z" fill="#FFC800"/>
<path d="M79.6451 231.137C77.6173 241.895 76.6326 252.824 76.7048 263.772C76.7048 271.835 77.7275 279.898 77.8553 286.041C77.9832 292.184 79.5173 296.024 79.5173 296.024C51.4658 289.451 24.6288 278.48 0 263.516C24.7575 248.748 51.6121 237.83 79.6451 231.137V231.137Z" fill="#FFC800"/>
<path d="M120.681 143.725C118.321 146.143 116.222 148.803 114.416 151.66C103.402 166.244 94.772 182.486 88.8482 199.781C67.6981 180.051 49.831 157.066 35.9219 131.694C64.6331 131.182 93.2432 135.242 120.681 143.725Z" fill="#FFC800"/>
<path d="M199.945 88.1801C179.484 95.6756 160.458 106.627 143.695 120.56C135.502 92.8603 131.537 64.0807 131.933 35.1953C157.133 49.3376 180.061 67.1996 199.945 88.1801V88.1801Z" fill="#FFC800"/>
<path d="M296.21 79.7332C278.097 76.5922 259.626 76.075 241.366 78.1974L231.395 79.8612C237.922 51.6861 248.883 24.7292 263.866 0C278.599 24.7945 289.503 51.6759 296.21 79.7332V79.7332Z" fill="#FFC800"/>
<path d="M383.526 120.816C366.871 106.862 347.926 95.9068 327.531 88.4359C347.29 67.3528 370.242 49.5154 395.543 35.5791C396.069 64.4489 392.013 93.2194 383.526 120.816Z" fill="#FFC800"/>
<path d="M439.008 200.165C435.314 189.932 430.737 180.04 425.329 170.601C419.806 161.216 413.566 152.273 406.664 143.853C434.349 135.727 463.085 131.759 491.934 132.078C477.859 157.34 460.011 180.3 439.008 200.165V200.165Z" fill="#FFC800"/>
<path d="M447.445 296.536C449.326 285.804 450.224 274.923 450.13 264.028C450.13 255.837 449.107 247.774 448.979 241.631C448.852 235.488 447.445 231.649 447.445 231.649C475.554 238.295 502.464 249.261 527.218 264.156C502.465 279.024 475.552 289.948 447.445 296.536V296.536Z" fill="#FFC800"/>
<path d="M432.486 263.772C432.486 308.645 414.68 351.68 382.985 383.41C351.29 415.14 308.303 432.965 263.479 432.965V432.965C219.478 431.754 177.684 413.403 146.99 381.817C116.295 350.232 99.1211 307.903 99.1211 263.836C99.1211 219.769 116.295 177.441 146.99 145.855C177.684 114.27 219.478 95.9191 263.479 94.7073V94.7073C308.281 94.7073 351.249 112.515 382.94 144.218C414.631 175.92 432.452 218.922 432.486 263.772Z" fill="#FFC800"/>
<path d="M491.549 395.978C462.708 396.556 433.961 392.494 406.406 383.948C420.407 367.367 431.358 348.431 438.75 328.02C459.81 347.751 477.629 370.686 491.549 395.978V395.978Z" fill="#FFC800"/>
<path d="M395.156 492.605C369.901 478.494 346.963 460.58 327.145 439.492C337.377 435.819 347.26 431.236 356.676 425.798C366.155 420.37 375.138 414.117 383.523 407.113C391.6 434.878 395.52 463.689 395.156 492.605V492.605Z" fill="#FFC800"/>
<path d="M295.698 447.939C289.253 476.06 278.286 502.945 263.227 527.544V527.544C248.429 502.828 237.52 475.979 230.883 447.939C246.352 449.731 256.451 450.499 263.227 450.627C274.86 450.627 278.44 449.603 285.727 449.475C293.014 449.347 295.698 447.939 295.698 447.939Z" fill="#FFC800"/>
<path d="M143.437 406.857C160.067 420.845 179.019 431.804 199.432 439.237C179.744 460.38 156.832 478.264 131.548 492.221C130.986 463.317 134.999 434.505 143.437 406.857V406.857Z" fill="#FFC800"/>
<path d="M88.0815 327.508C91.8594 337.793 96.6112 347.692 102.272 357.072C107.532 366.541 113.606 375.534 120.425 383.948C92.7134 392.153 63.923 396.122 35.0273 395.722C49.1477 370.418 67.0378 347.416 88.0815 327.508V327.508Z" fill="#FFC800"/>
<path d="M79.6451 231.137C77.6173 241.895 76.6326 252.824 76.7048 263.772C76.7048 271.835 77.7275 279.898 77.8553 286.041C77.9832 292.184 79.5173 296.024 79.5173 296.024C51.4658 289.451 24.6288 278.48 0 263.516C24.7575 248.748 51.6121 237.83 79.6451 231.137V231.137Z" fill="#FFC800"/>
<path d="M120.681 143.725C118.321 146.143 116.222 148.803 114.416 151.66C103.402 166.244 94.772 182.486 88.8482 199.781C67.6981 180.051 49.831 157.066 35.9219 131.694C64.6331 131.182 93.2432 135.242 120.681 143.725Z" fill="#FFC800"/>
<path d="M199.945 88.1801C179.484 95.6756 160.458 106.627 143.695 120.56C135.502 92.8603 131.537 64.0807 131.933 35.1953C157.133 49.3376 180.061 67.1996 199.945 88.1801V88.1801Z" fill="#FFC800"/>
<path d="M296.209 79.7332C285.271 78.1965 274.263 77.2141 263.226 76.7896C251.976 76.7896 248.396 77.8135 241.237 77.9414C234.078 78.0694 231.266 79.7332 231.266 79.7332C237.782 51.9573 248.563 25.3618 263.226 0.895879L263.865 0C278.651 24.7679 289.559 51.6576 296.209 79.7332V79.7332Z" fill="#FFC800"/>
<path d="M383.526 120.816C366.871 106.862 347.926 95.9068 327.531 88.4359C347.317 67.3825 370.264 49.549 395.543 35.5791C396.122 64.4521 392.065 93.2309 383.526 120.816V120.816Z" fill="#FFC800"/>
<path d="M492.062 132.078C477.899 157.354 460.014 180.35 439.008 200.293C435.344 190.006 430.766 180.069 425.329 170.601C419.853 161.186 413.61 152.239 406.664 143.852C434.376 135.648 463.166 131.678 492.062 132.078V132.078Z" fill="#FFC800"/>
<path d="M450.13 264.028C450.13 255.837 449.107 247.774 448.979 241.631C448.852 235.488 447.445 231.649 447.445 231.649C475.554 238.295 502.464 249.261 527.218 264.156C502.465 279.024 475.552 289.948 447.445 296.536C449.326 285.804 450.224 274.923 450.13 264.028V264.028Z" fill="#FFC800"/>
<path d="M296.21 79.7332C285.272 78.1965 274.263 77.2141 263.227 76.7896V0.895879L263.866 0C278.652 24.7679 289.56 51.6576 296.21 79.7332V79.7332Z" fill="#FFDC00"/>
<path d="M285.727 449.475C291.735 448.707 295.698 447.811 295.698 447.811C289.253 475.932 278.286 502.817 263.227 527.416V450.627C274.86 451.011 278.44 449.603 285.727 449.475Z" fill="#FFDC00"/>
<path d="M263.48 432.965V94.7071C286.057 94.0853 308.53 98 329.57 106.22C350.61 114.44 369.791 126.798 385.979 142.565C402.167 158.331 415.035 177.186 423.821 198.015C432.608 218.845 437.134 241.226 437.134 263.836C437.134 286.446 432.608 308.827 423.821 329.657C415.035 350.486 402.167 369.341 385.979 385.108C369.791 400.874 350.61 413.232 329.57 421.452C308.53 429.672 286.057 433.587 263.48 432.965V432.965Z" fill="#FFDC00"/>
<path d="M383.524 407.113C391.644 434.872 395.608 463.682 395.285 492.605C370.03 478.494 347.092 460.58 327.273 439.492C337.506 435.819 347.389 431.236 356.805 425.798C366.239 420.363 375.18 414.111 383.524 407.113V407.113Z" fill="#FFDC00"/>
<path d="M383.526 120.816C366.871 106.862 347.926 95.9068 327.531 88.4359C347.317 67.3825 370.264 49.549 395.543 35.5791C396.122 64.4521 392.065 93.2309 383.526 120.816V120.816Z" fill="#FFDC00"/>
<path d="M491.549 395.978C462.708 396.556 433.961 392.494 406.406 383.948C420.407 367.367 431.358 348.431 438.75 328.02C459.81 347.751 477.629 370.686 491.549 395.978V395.978Z" fill="#FFDC00"/>
<path d="M425.329 170.601C419.853 161.186 413.61 152.239 406.664 143.852C434.376 135.648 463.166 131.678 492.062 132.078C477.899 157.354 460.014 180.35 439.008 200.293C435.344 190.006 430.766 180.069 425.329 170.601V170.601Z" fill="#FFDC00"/>
<path d="M450.13 264.028C450.13 255.837 449.107 247.774 448.979 241.631C448.852 235.488 447.445 231.649 447.445 231.649C475.554 238.295 502.464 249.261 527.218 264.156C502.465 279.024 475.552 289.948 447.445 296.536C449.326 285.804 450.224 274.923 450.13 264.028V264.028Z" fill="#FFDC00"/>
<path d="M413.822 263.772H394.646C394.612 228.957 380.782 195.577 356.191 170.959C331.6 146.341 298.257 132.496 263.48 132.462V113.265C303.343 113.299 341.563 129.166 369.75 157.385C397.938 185.603 413.788 223.866 413.822 263.772V263.772Z" fill="white"/>
<path d="M973.002 501.436C972.968 540.562 957.427 578.076 929.791 605.742C902.156 633.408 864.683 648.966 825.601 649H209.15C175.244 649 142.727 635.516 118.752 611.515C94.7775 587.513 81.3086 554.96 81.3086 521.017C81.3086 487.074 94.7775 454.521 118.752 430.52C142.727 406.518 175.244 393.035 209.15 393.035C231.067 393.009 252.612 398.699 271.664 409.544C268.544 400.968 266.902 391.923 266.806 382.796C266.761 366.356 271.901 350.321 281.494 336.977C291.087 323.633 304.643 313.661 320.23 308.484C335.816 303.306 352.638 303.187 368.296 308.142C383.955 313.098 397.651 322.876 407.432 336.082C410.681 288.774 430.915 244.238 464.397 210.695C497.879 177.152 542.351 156.866 589.605 153.579C593.952 153.579 598.427 153.579 603.029 153.579C654.965 153.578 704.789 174.162 741.609 210.831C778.43 247.5 799.251 297.272 799.521 349.265C799.521 351.696 799.521 354 799.521 356.56C808.25 354.929 817.105 354.072 825.984 354C864.989 354.102 902.363 369.676 929.919 397.311C957.476 424.946 972.968 462.388 973.002 501.436V501.436Z" fill="#00AAC8"/>
<path d="M973.002 501.436C972.968 540.562 957.427 578.076 929.791 605.742C902.156 633.408 864.683 648.966 825.601 649H589.605V153.579C593.952 153.579 598.427 153.579 603.029 153.579C654.965 153.578 704.789 174.162 741.609 210.831C778.429 247.5 799.251 297.272 799.521 349.265C799.521 351.696 799.521 354 799.521 356.56C808.25 354.929 817.105 354.072 825.984 354C864.989 354.102 902.363 369.676 929.919 397.311C957.476 424.946 972.968 462.388 973.002 501.436V501.436Z" fill="#00B4D2"/>
<path d="M751.836 349.776H732.66C732.66 315.211 718.953 282.059 694.55 257.605C670.147 233.151 637.045 219.396 602.518 219.362C598.427 219.362 594.464 219.362 590.501 220.002L588.711 200.805C593.313 200.805 597.916 200.805 602.518 200.805C642.011 200.872 679.874 216.572 707.847 244.481C735.821 272.389 751.634 310.241 751.836 349.776V349.776Z" fill="white"/>
</svg>
