<svg width="973" height="868" viewBox="0 0 973 868" fill="none" xmlns="http://www.w3.org/2000/svg">
<path d="M432.489 263.9C432.489 297.364 422.577 330.075 404.006 357.899C385.436 385.723 359.041 407.408 328.159 420.214C297.277 433.02 263.295 436.371 230.511 429.842C197.727 423.314 167.613 407.2 143.977 383.538C120.341 359.876 104.245 329.728 97.724 296.908C91.2029 264.088 94.5498 230.069 107.341 199.153C120.133 168.237 141.795 141.813 169.588 123.221C197.381 104.63 230.057 94.7072 263.483 94.7072C285.682 94.6904 307.666 99.0552 328.179 107.552C348.691 116.049 367.329 128.511 383.026 144.225C398.723 159.94 411.171 178.598 419.658 199.133C428.146 219.668 432.506 241.677 432.489 263.9V263.9Z" fill="#FFC800"/>
<path d="M406.406 383.948C420.378 367.299 431.326 348.326 438.75 327.892C459.81 347.624 477.629 370.558 491.549 395.85C462.718 396.402 433.983 392.385 406.406 383.948V383.948Z" fill="#FFC800"/>
<path d="M327.145 439.492C337.389 435.85 347.275 431.265 356.676 425.798C366.155 420.37 375.138 414.117 383.523 407.113C391.718 434.855 395.683 463.678 395.284 492.605C369.984 478.505 347.002 460.591 327.145 439.492V439.492Z" fill="#FFC800"/>
<path d="M230.883 447.939C248.996 451.08 267.466 451.597 285.727 449.475C291.735 448.707 295.698 447.811 295.698 447.811C289.06 475.951 278.106 502.891 263.227 527.672C248.428 502.911 237.519 476.019 230.883 447.939V447.939Z" fill="#FFC800"/>
<path d="M143.437 406.857C160.067 420.844 179.019 431.804 199.432 439.236C179.744 460.38 156.832 478.264 131.548 492.221C130.986 463.317 134.999 434.505 143.437 406.857V406.857Z" fill="#FFC800"/>
<path d="M88.0815 327.508C91.8594 337.793 96.6112 347.692 102.272 357.072C107.532 366.541 113.606 375.534 120.425 383.948C92.7134 392.153 63.923 396.122 35.0273 395.722C49.1477 370.418 67.0378 347.416 88.0815 327.508V327.508Z" fill="#FFC800"/>
<path d="M79.6451 231.137C77.6173 241.895 76.6326 252.824 76.7048 263.772C76.7048 271.835 77.7275 279.898 77.8553 286.041C77.9832 292.184 79.5173 296.024 79.5173 296.024C51.4658 289.451 24.6288 278.48 0 263.516C24.7575 248.748 51.6121 237.83 79.6451 231.137V231.137Z" fill="#FFC800"/>
<path d="M120.681 143.724C118.321 146.143 116.222 148.803 114.416 151.659C103.402 166.243 94.772 182.486 88.8482 199.781C67.6981 180.051 49.831 157.066 35.9219 131.694C64.6331 131.182 93.2432 135.242 120.681 143.724Z" fill="#FFC800"/>
<path d="M199.945 88.18C179.484 95.6755 160.458 106.627 143.695 120.56C135.502 92.8602 131.537 64.0806 131.933 35.1952C157.133 49.3375 180.061 67.1995 199.945 88.18V88.18Z" fill="#FFC800"/>
<path d="M296.21 79.7332C278.097 76.5922 259.626 76.075 241.366 78.1974L231.395 79.8612C237.922 51.6861 248.883 24.7292 263.866 0C278.599 24.7945 289.503 51.6759 296.21 79.7332V79.7332Z" fill="#FFC800"/>
<path d="M383.526 120.816C366.871 106.862 347.926 95.9069 327.531 88.4361C347.29 67.3529 370.242 49.5155 395.543 35.5792C396.069 64.4491 392.013 93.2195 383.526 120.816Z" fill="#FFC800"/>
<path d="M439.008 200.165C435.314 189.931 430.737 180.039 425.329 170.601C419.806 161.216 413.566 152.273 406.664 143.852C434.349 135.726 463.085 131.758 491.934 132.078C477.859 157.34 460.011 180.3 439.008 200.165V200.165Z" fill="#FFC800"/>
<path d="M447.445 296.536C449.326 285.804 450.224 274.923 450.13 264.028C450.13 255.837 449.107 247.774 448.979 241.631C448.852 235.488 447.445 231.649 447.445 231.649C475.554 238.295 502.464 249.26 527.218 264.156C502.465 279.024 475.552 289.948 447.445 296.536V296.536Z" fill="#FFC800"/>
<path d="M432.486 263.772C432.486 308.645 414.68 351.68 382.985 383.41C351.29 415.14 308.303 432.965 263.479 432.965V432.965C219.478 431.753 177.684 413.403 146.99 381.817C116.295 350.232 99.1211 307.903 99.1211 263.836C99.1211 219.769 116.295 177.441 146.99 145.855C177.684 114.27 219.478 95.919 263.479 94.7072V94.7072C308.281 94.7071 351.249 112.515 382.94 144.217C414.631 175.92 432.452 218.922 432.486 263.772Z" fill="#FFC800"/>
<path d="M491.549 395.978C462.708 396.556 433.961 392.494 406.406 383.948C420.407 367.367 431.358 348.431 438.75 328.02C459.81 347.751 477.629 370.686 491.549 395.978V395.978Z" fill="#FFC800"/>
<path d="M395.156 492.605C369.901 478.494 346.963 460.58 327.145 439.492C337.377 435.819 347.26 431.236 356.676 425.798C366.155 420.37 375.138 414.117 383.523 407.113C391.6 434.878 395.52 463.689 395.156 492.605V492.605Z" fill="#FFC800"/>
<path d="M295.698 447.939C289.253 476.06 278.286 502.945 263.227 527.544V527.544C248.429 502.828 237.52 475.979 230.883 447.939C246.352 449.731 256.451 450.499 263.227 450.627C274.86 450.627 278.44 449.603 285.727 449.475C293.014 449.347 295.698 447.939 295.698 447.939Z" fill="#FFC800"/>
<path d="M143.437 406.857C160.067 420.844 179.019 431.804 199.432 439.236C179.744 460.38 156.832 478.264 131.548 492.221C130.986 463.317 134.999 434.505 143.437 406.857V406.857Z" fill="#FFC800"/>
<path d="M88.0815 327.508C91.8594 337.793 96.6112 347.692 102.272 357.072C107.532 366.541 113.606 375.534 120.425 383.948C92.7134 392.153 63.923 396.122 35.0273 395.722C49.1477 370.418 67.0378 347.416 88.0815 327.508V327.508Z" fill="#FFC800"/>
<path d="M79.6451 231.137C77.6173 241.895 76.6326 252.824 76.7048 263.772C76.7048 271.835 77.7275 279.898 77.8553 286.041C77.9832 292.184 79.5173 296.024 79.5173 296.024C51.4658 289.451 24.6288 278.48 0 263.516C24.7575 248.748 51.6121 237.83 79.6451 231.137V231.137Z" fill="#FFC800"/>
<path d="M120.681 143.724C118.321 146.143 116.222 148.803 114.416 151.659C103.402 166.243 94.772 182.486 88.8482 199.781C67.6981 180.051 49.831 157.066 35.9219 131.694C64.6331 131.182 93.2432 135.242 120.681 143.724Z" fill="#FFC800"/>
<path d="M199.945 88.18C179.484 95.6755 160.458 106.627 143.695 120.56C135.502 92.8602 131.537 64.0806 131.933 35.1952C157.133 49.3375 180.061 67.1995 199.945 88.18V88.18Z" fill="#FFC800"/>
<path d="M296.209 79.7332C285.271 78.1965 274.263 77.2141 263.226 76.7896C251.976 76.7896 248.396 77.8135 241.237 77.9414C234.078 78.0694 231.266 79.7332 231.266 79.7332C237.782 51.9573 248.563 25.3618 263.226 0.895879L263.865 0C278.651 24.7679 289.559 51.6576 296.209 79.7332V79.7332Z" fill="#FFC800"/>
<path d="M383.526 120.816C366.871 106.862 347.926 95.9069 327.531 88.4361C347.317 67.3826 370.264 49.5491 395.543 35.5792C396.122 64.4523 392.065 93.231 383.526 120.816V120.816Z" fill="#FFC800"/>
<path d="M492.062 132.078C477.899 157.354 460.014 180.35 439.008 200.293C435.344 190.006 430.766 180.069 425.329 170.601C419.853 161.186 413.61 152.239 406.664 143.853C434.376 135.648 463.166 131.678 492.062 132.078V132.078Z" fill="#FFC800"/>
<path d="M450.13 264.028C450.13 255.837 449.107 247.774 448.979 241.631C448.852 235.488 447.445 231.649 447.445 231.649C475.554 238.295 502.464 249.26 527.218 264.156C502.465 279.024 475.552 289.948 447.445 296.536C449.326 285.804 450.224 274.923 450.13 264.028V264.028Z" fill="#FFC800"/>
<path d="M296.21 79.7332C285.272 78.1965 274.263 77.2141 263.227 76.7896V0.895879L263.866 0C278.652 24.7679 289.56 51.6576 296.21 79.7332V79.7332Z" fill="#FFDC00"/>
<path d="M285.727 449.475C291.735 448.707 295.698 447.811 295.698 447.811C289.253 475.932 278.286 502.817 263.227 527.416V450.627C274.86 451.011 278.44 449.603 285.727 449.475Z" fill="#FFDC00"/>
<path d="M263.48 432.965V94.7072C286.057 94.0854 308.53 98.0001 329.57 106.22C350.61 114.44 369.791 126.798 385.979 142.565C402.167 158.331 415.035 177.186 423.821 198.016C432.608 218.845 437.134 241.226 437.134 263.836C437.134 286.447 432.608 308.828 423.821 329.657C415.035 350.486 402.167 369.341 385.979 385.108C369.791 400.874 350.61 413.233 329.57 421.452C308.53 429.672 286.057 433.587 263.48 432.965V432.965Z" fill="#FFDC00"/>
<path d="M383.524 407.113C391.644 434.872 395.608 463.682 395.285 492.605C370.03 478.494 347.092 460.58 327.273 439.492C337.506 435.819 347.389 431.236 356.805 425.798C366.239 420.363 375.18 414.111 383.524 407.113V407.113Z" fill="#FFDC00"/>
<path d="M383.526 120.816C366.871 106.862 347.926 95.9069 327.531 88.4361C347.317 67.3826 370.264 49.5491 395.543 35.5792C396.122 64.4523 392.065 93.231 383.526 120.816V120.816Z" fill="#FFDC00"/>
<path d="M491.549 395.978C462.708 396.556 433.961 392.494 406.406 383.948C420.407 367.367 431.358 348.431 438.75 328.02C459.81 347.751 477.629 370.686 491.549 395.978V395.978Z" fill="#FFDC00"/>
<path d="M425.329 170.601C419.853 161.186 413.61 152.239 406.664 143.853C434.376 135.648 463.166 131.678 492.062 132.078C477.899 157.354 460.014 180.35 439.008 200.293C435.344 190.006 430.766 180.069 425.329 170.601V170.601Z" fill="#FFDC00"/>
<path d="M450.13 264.028C450.13 255.837 449.107 247.774 448.979 241.631C448.852 235.488 447.445 231.649 447.445 231.649C475.554 238.295 502.464 249.26 527.218 264.156C502.465 279.024 475.552 289.948 447.445 296.536C449.326 285.804 450.224 274.923 450.13 264.028V264.028Z" fill="#FFDC00"/>
<path d="M413.822 263.772H394.646C394.612 228.957 380.782 195.577 356.191 170.959C331.6 146.341 298.257 132.496 263.48 132.462V113.265C303.343 113.299 341.563 129.166 369.75 157.385C397.938 185.603 413.788 223.866 413.822 263.772V263.772Z" fill="white"/>
<path d="M973.002 501.436C972.968 540.562 957.427 578.076 929.791 605.742C902.156 633.408 864.683 648.966 825.601 649H209.15C175.244 649 142.727 635.516 118.752 611.515C94.7775 587.513 81.3086 554.96 81.3086 521.017C81.3086 487.074 94.7775 454.521 118.752 430.52C142.727 406.518 175.244 393.035 209.15 393.035C231.067 393.009 252.612 398.699 271.664 409.544C268.544 400.968 266.902 391.923 266.806 382.796C266.761 366.356 271.901 350.321 281.494 336.977C291.087 323.633 304.643 313.661 320.23 308.484C335.816 303.306 352.638 303.187 368.296 308.142C383.955 313.098 397.651 322.876 407.432 336.082C410.681 288.774 430.915 244.238 464.397 210.695C497.879 177.152 542.351 156.866 589.605 153.579C593.952 153.579 598.427 153.579 603.029 153.579C654.965 153.578 704.789 174.162 741.609 210.831C778.43 247.5 799.251 297.272 799.521 349.265C799.521 351.696 799.521 354 799.521 356.56C808.25 354.929 817.105 354.072 825.984 354C864.989 354.102 902.363 369.676 929.919 397.311C957.476 424.946 972.968 462.388 973.002 501.436V501.436Z" fill="#00AAC8"/>
<path d="M973.002 501.436C972.968 540.562 957.427 578.076 929.791 605.742C902.156 633.408 864.683 648.966 825.601 649H589.605V153.579C593.952 153.579 598.427 153.579 603.029 153.579C654.965 153.578 704.789 174.162 741.609 210.831C778.429 247.5 799.251 297.272 799.521 349.265C799.521 351.696 799.521 354 799.521 356.56C808.25 354.929 817.105 354.072 825.984 354C864.989 354.102 902.363 369.676 929.919 397.311C957.476 424.946 972.968 462.388 973.002 501.436V501.436Z" fill="#00B4D2"/>
<path d="M751.836 349.776H732.66C732.66 315.211 718.953 282.059 694.55 257.605C670.147 233.151 637.045 219.396 602.518 219.362C598.427 219.362 594.464 219.362 590.501 220.002L588.711 200.805C593.313 200.805 597.916 200.805 602.518 200.805C642.011 200.872 679.874 216.572 707.847 244.481C735.821 272.389 751.634 310.241 751.836 349.776V349.776Z" fill="white"/>
<path d="M166.909 721.1C166.909 721.1 120.868 753.695 119.067 775.514C117.265 797.333 152.429 807.809 161.337 777.549C166.777 759.26 168.669 740.1 166.909 721.1V721.1Z" fill="url(#paint0_radial_638_425)"/>
<path style="mix-blend-mode:multiply" opacity="0.6" d="M166.599 721.3C166.599 732.944 160.994 755.764 159.727 761.669C157.525 771.911 153.788 780.419 144.113 785.256C128.566 792.963 118.49 777.416 122.994 764.538C120.914 767.874 119.572 771.617 119.058 775.514C117.389 797.467 152.42 807.809 161.395 777.449C166.812 759.156 168.681 739.995 166.9 721L166.599 721.3Z" fill="url(#paint1_radial_638_425)"/>
<path d="M149.098 757.599C146.162 767.608 134.719 764.071 135.286 756.931C135.853 749.792 150.933 739.149 150.933 739.149C151.507 745.36 150.884 751.623 149.098 757.599V757.599Z" fill="white"/>
<path d="M338.064 721.1C338.064 721.1 292.024 753.695 290.256 775.514C288.488 797.333 323.618 807.809 332.526 777.549C337.942 759.256 339.822 740.097 338.064 721.1Z" fill="url(#paint2_radial_638_425)"/>
<path style="mix-blend-mode:multiply" opacity="0.6" d="M337.762 721.3C337.762 732.944 332.124 755.764 330.889 761.669C328.687 771.911 324.951 780.419 315.242 785.256C299.729 792.963 289.653 777.416 294.124 764.538C292.096 767.893 290.778 771.629 290.254 775.514C288.519 797.333 323.616 807.809 332.524 777.549C337.94 759.256 339.82 740.097 338.062 721.1L337.762 721.3Z" fill="url(#paint3_radial_638_425)"/>
<path d="M320.37 757.599C317.401 767.608 305.957 764.071 306.558 756.931C307.158 749.792 322.172 739.149 322.172 739.149C322.747 745.358 322.136 751.619 320.37 757.599V757.599Z" fill="white"/>
<path d="M514.318 721.1C514.318 721.1 468.277 753.695 466.543 775.514C464.808 797.333 499.905 807.809 508.78 777.549C514.218 759.26 516.098 740.097 514.318 721.1V721.1Z" fill="url(#paint4_radial_638_425)"/>
<path style="mix-blend-mode:multiply" opacity="0.6" d="M514.018 721.3C514.018 732.944 508.413 755.764 507.145 761.669C504.943 771.911 501.206 780.419 491.531 785.256C475.984 792.963 465.909 777.416 470.413 764.538C468.356 767.88 467.036 771.622 466.543 775.514C464.808 797.333 499.905 807.809 508.78 777.549C514.218 759.26 516.098 740.097 514.318 721.1L514.018 721.3Z" fill="url(#paint5_radial_638_425)"/>
<path d="M496.632 757.599C493.696 767.608 482.219 764.071 482.82 756.931C483.42 749.792 498.433 739.149 498.433 739.149C499.029 745.358 498.418 751.623 496.632 757.599V757.599Z" fill="white"/>
<path d="M685.433 721.1C685.433 721.1 639.426 753.695 637.658 775.514C635.89 797.333 671.021 807.809 679.929 777.549C685.346 759.256 687.215 740.095 685.433 721.1V721.1Z" fill="url(#paint6_radial_638_425)"/>
<path style="mix-blend-mode:multiply" opacity="0.6" d="M685.131 721.3C685.131 732.944 679.526 755.764 678.258 761.669C676.056 771.911 672.353 780.419 662.644 785.256C647.097 792.963 637.022 777.416 641.526 764.538C639.469 767.88 638.15 771.622 637.656 775.514C635.921 797.333 671.018 807.809 679.926 777.549C685.344 759.256 687.213 740.095 685.431 721.1L685.131 721.3Z" fill="url(#paint7_radial_638_425)"/>
<path d="M667.788 757.599C664.818 767.608 653.375 764.071 653.942 756.931C654.509 749.792 669.589 739.149 669.589 739.149C670.165 745.358 669.553 751.619 667.788 757.599V757.599Z" fill="white"/>
<path d="M854.885 721.1C854.885 721.1 808.844 753.695 807.076 775.514C805.308 797.333 840.439 807.809 849.347 777.549C854.763 759.256 856.642 740.097 854.885 721.1V721.1Z" fill="url(#paint8_radial_638_425)"/>
<path style="mix-blend-mode:multiply" opacity="0.6" d="M854.549 721.3C854.549 732.944 848.944 755.764 847.676 761.669C845.474 771.911 841.771 780.419 832.062 785.256C816.549 792.963 806.473 777.416 810.944 764.538C808.902 767.887 807.583 771.626 807.074 775.514C805.339 797.333 840.436 807.809 849.344 777.549C854.76 759.256 856.64 740.097 854.882 721.1L854.549 721.3Z" fill="url(#paint9_radial_638_425)"/>
<path d="M837.169 757.599C834.233 767.608 822.789 764.071 823.39 756.931C823.991 749.792 839.004 739.149 839.004 739.149C839.577 745.36 838.954 751.623 837.169 757.599Z" fill="white"/>
<path d="M238.24 792.763C238.24 792.763 192.199 825.358 190.464 847.177C188.73 868.996 223.827 879.472 232.735 849.212C238.153 830.919 240.022 811.758 238.24 792.763V792.763Z" fill="url(#paint10_radial_638_425)"/>
<path style="mix-blend-mode:multiply" opacity="0.6" d="M237.939 792.963C237.939 804.606 232.335 827.426 231.067 833.365C228.865 843.574 225.162 852.048 215.453 856.919C199.906 864.626 189.831 849.079 194.335 836.201C192.282 839.545 190.963 843.286 190.464 847.177C188.73 868.996 223.827 879.472 232.735 849.212C238.153 830.919 240.022 811.758 238.24 792.763L237.939 792.963Z" fill="url(#paint11_radial_638_425)"/>
<path d="M220.551 829.262C217.615 839.27 206.172 835.734 206.739 828.594C207.306 821.455 222.486 810.812 222.486 810.812C223.027 817.029 222.371 823.292 220.551 829.262V829.262Z" fill="white"/>
<path d="M409.314 792.763C409.314 792.763 363.274 825.358 361.539 847.177C359.804 868.996 394.901 879.472 403.776 849.212C409.192 830.919 411.071 811.76 409.314 792.763V792.763Z" fill="url(#paint12_radial_638_425)"/>
<path style="mix-blend-mode:multiply" opacity="0.6" d="M409.094 792.963C409.094 804.606 403.456 827.426 402.221 833.365C400.019 843.574 396.283 852.048 386.574 856.919C371.061 864.626 360.985 849.079 365.456 836.201C363.427 839.553 362.12 843.291 361.619 847.177C359.851 868.996 394.982 879.472 403.856 849.212C409.25 830.914 411.107 811.756 409.328 792.763L409.094 792.963Z" fill="url(#paint13_radial_638_425)"/>
<path d="M391.706 829.262C388.737 839.27 377.293 835.734 377.894 828.594C378.494 821.455 393.508 810.812 393.508 810.812C394.083 817.02 393.471 823.282 391.706 829.262Z" fill="white"/>
<path d="M585.642 792.763C585.642 792.763 539.602 825.358 537.867 847.177C536.132 868.996 571.229 879.472 580.104 849.212C585.542 830.923 587.422 811.76 585.642 792.763V792.763Z" fill="url(#paint14_radial_638_425)"/>
<path style="mix-blend-mode:multiply" opacity="0.6" d="M585.342 792.963C585.342 804.606 579.737 827.426 578.469 833.365C576.267 843.574 572.531 852.048 562.855 856.919C547.308 864.626 537.233 849.079 541.737 836.201C539.685 839.545 538.366 843.286 537.867 847.177C536.132 868.996 571.229 879.472 580.104 849.212C585.542 830.923 587.422 811.76 585.642 792.763L585.342 792.963Z" fill="url(#paint15_radial_638_425)"/>
<path d="M567.954 829.262C565.018 839.27 553.574 835.734 554.141 828.594C554.709 821.455 569.789 810.812 569.789 810.812C570.362 817.023 569.739 823.286 567.954 829.262V829.262Z" fill="white"/>
<path d="M756.758 792.763C756.758 792.763 710.751 825.358 708.982 847.177C707.214 868.996 742.345 879.472 751.253 849.212C756.671 830.919 758.54 811.758 756.758 792.763V792.763Z" fill="url(#paint16_radial_638_425)"/>
<path style="mix-blend-mode:multiply" opacity="0.6" d="M756.488 792.963C756.488 804.606 750.85 827.426 749.582 833.365C747.38 843.574 743.677 852.048 733.969 856.919C718.455 864.626 708.38 849.079 712.85 836.201C710.798 839.545 709.479 843.286 708.98 847.177C707.245 868.996 742.343 879.472 751.25 849.212C756.669 830.919 758.538 811.758 756.755 792.763L756.488 792.963Z" fill="url(#paint17_radial_638_425)"/>
<path d="M739.112 829.262C736.143 839.27 724.699 835.734 725.266 828.594C725.834 821.455 740.914 810.812 740.914 810.812C741.489 817.02 740.877 823.282 739.112 829.262V829.262Z" fill="white"/>
<defs>
<radialGradient id="paint0_radial_638_425" cx="0" cy="0" r="1" gradientUnits="userSpaceOnUse" gradientTransform="translate(120.001 739.349) scale(59.4521)">
<stop offset="0.1" stop-color="#BCBCBC"/>
<stop offset="0.54" stop-color="#92BAC0"/>
<stop offset="1" stop-color="#549CC6"/>
</radialGradient>
<radialGradient id="paint1_radial_638_425" cx="0" cy="0" r="1" gradientUnits="userSpaceOnUse" gradientTransform="translate(119.992 739.349) scale(59.4521)">
<stop offset="0.68" stop-color="#92BAC0"/>
<stop offset="1" stop-color="#549CC6"/>
</radialGradient>
<radialGradient id="paint2_radial_638_425" cx="0" cy="0" r="1" gradientUnits="userSpaceOnUse" gradientTransform="translate(2791.92 12125.6) scale(864.473 1340.73)">
<stop offset="0.1" stop-color="#BCBCBC"/>
<stop offset="0.54" stop-color="#92BAC0"/>
<stop offset="1" stop-color="#549CC6"/>
</radialGradient>
<radialGradient id="paint3_radial_638_425" cx="0" cy="0" r="1" gradientUnits="userSpaceOnUse" gradientTransform="translate(2791.8 12125.6) scale(864.432 1340.73)">
<stop offset="0.68" stop-color="#92BAC0"/>
<stop offset="1" stop-color="#549CC6"/>
</radialGradient>
<radialGradient id="paint4_radial_638_425" cx="0" cy="0" r="1" gradientUnits="userSpaceOnUse" gradientTransform="translate(5529.11 12125.6) scale(864.055 1340.73)">
<stop offset="0.1" stop-color="#BCBCBC"/>
<stop offset="0.54" stop-color="#92BAC0"/>
<stop offset="1" stop-color="#549CC6"/>
</radialGradient>
<radialGradient id="paint5_radial_638_425" cx="0" cy="0" r="1" gradientUnits="userSpaceOnUse" gradientTransform="translate(5529.11 12125.6) scale(864.055 1340.73)">
<stop offset="0.68" stop-color="#92BAC0"/>
<stop offset="1" stop-color="#549CC6"/>
</radialGradient>
<radialGradient id="paint6_radial_638_425" cx="0" cy="0" r="1" gradientUnits="userSpaceOnUse" gradientTransform="translate(8187.99 12125.6) scale(864.149 1340.73)">
<stop offset="0.1" stop-color="#BCBCBC"/>
<stop offset="0.54" stop-color="#92BAC0"/>
<stop offset="1" stop-color="#549CC6"/>
</radialGradient>
<radialGradient id="paint7_radial_638_425" cx="0" cy="0" r="1" gradientUnits="userSpaceOnUse" gradientTransform="translate(8187.63 12125.6) scale(864.108 1340.73)">
<stop offset="0.68" stop-color="#92BAC0"/>
<stop offset="1" stop-color="#549CC6"/>
</radialGradient>
<radialGradient id="paint8_radial_638_425" cx="0" cy="0" r="1" gradientUnits="userSpaceOnUse" gradientTransform="translate(10823.6 12125.6) scale(864.473 1340.73)">
<stop offset="0.1" stop-color="#BCBCBC"/>
<stop offset="0.54" stop-color="#92BAC0"/>
<stop offset="1" stop-color="#549CC6"/>
</radialGradient>
<radialGradient id="paint9_radial_638_425" cx="0" cy="0" r="1" gradientUnits="userSpaceOnUse" gradientTransform="translate(10823.2 12125.6) scale(864.432 1340.73)">
<stop offset="0.68" stop-color="#92BAC0"/>
<stop offset="1" stop-color="#549CC6"/>
</radialGradient>
<radialGradient id="paint10_radial_638_425" cx="0" cy="0" r="1" gradientUnits="userSpaceOnUse" gradientTransform="translate(1240.73 13813.3) scale(864.117 1340.73)">
<stop offset="0.1" stop-color="#BCBCBC"/>
<stop offset="0.54" stop-color="#92BAC0"/>
<stop offset="1" stop-color="#549CC6"/>
</radialGradient>
<radialGradient id="paint11_radial_638_425" cx="0" cy="0" r="1" gradientUnits="userSpaceOnUse" gradientTransform="translate(1240.73 13813.3) scale(864.117 1340.73)">
<stop offset="0.68" stop-color="#92BAC0"/>
<stop offset="1" stop-color="#549CC6"/>
</radialGradient>
<radialGradient id="paint12_radial_638_425" cx="0" cy="0" r="1" gradientUnits="userSpaceOnUse" gradientTransform="translate(3898.26 13813.3) scale(863.837 1340.73)">
<stop offset="0.1" stop-color="#BCBCBC"/>
<stop offset="0.54" stop-color="#92BAC0"/>
<stop offset="1" stop-color="#549CC6"/>
</radialGradient>
<radialGradient id="paint13_radial_638_425" cx="0" cy="0" r="1" gradientUnits="userSpaceOnUse" gradientTransform="translate(3894.81 13813.3) scale(862.974 1340.73)">
<stop offset="0.68" stop-color="#92BAC0"/>
<stop offset="1" stop-color="#549CC6"/>
</radialGradient>
<radialGradient id="paint14_radial_638_425" cx="0" cy="0" r="1" gradientUnits="userSpaceOnUse" gradientTransform="translate(6637.11 13813.3) scale(864.056 1340.73)">
<stop offset="0.1" stop-color="#BCBCBC"/>
<stop offset="0.54" stop-color="#92BAC0"/>
<stop offset="1" stop-color="#549CC6"/>
</radialGradient>
<radialGradient id="paint15_radial_638_425" cx="0" cy="0" r="1" gradientUnits="userSpaceOnUse" gradientTransform="translate(6637.11 13813.3) scale(864.056 1340.73)">
<stop offset="0.68" stop-color="#92BAC0"/>
<stop offset="1" stop-color="#549CC6"/>
</radialGradient>
<radialGradient id="paint16_radial_638_425" cx="0" cy="0" r="1" gradientUnits="userSpaceOnUse" gradientTransform="translate(9296.18 13813.3) scale(864.157 1340.73)">
<stop offset="0.1" stop-color="#BCBCBC"/>
<stop offset="0.54" stop-color="#92BAC0"/>
<stop offset="1" stop-color="#549CC6"/>
</radialGradient>
<radialGradient id="paint17_radial_638_425" cx="0" cy="0" r="1" gradientUnits="userSpaceOnUse" gradientTransform="translate(9295.77 13813.3) scale(864.116 1340.73)">
<stop offset="0.68" stop-color="#92BAC0"/>
<stop offset="1" stop-color="#549CC6"/>
</radialGradient>
</defs>
</svg>
