<svg width="892" height="496" viewBox="0 0 892 496" fill="none" xmlns="http://www.w3.org/2000/svg">
<path d="M891.693 347.857C891.659 386.983 876.119 424.497 848.483 452.163C820.847 479.829 783.375 495.387 744.292 495.421H127.841C93.9357 495.421 61.4187 481.937 37.4438 457.936C13.4689 433.934 0 401.381 0 367.438C0 333.495 13.4689 300.942 37.4438 276.941C61.4187 252.939 93.9357 239.456 127.841 239.456C149.758 239.43 171.303 245.12 190.356 255.965C187.236 247.389 185.593 238.344 185.498 229.217C185.452 212.777 190.593 196.741 200.185 183.398C209.778 170.054 223.334 160.082 238.921 154.904C254.508 149.727 271.329 149.607 286.988 154.563C302.646 159.519 316.342 169.297 326.123 182.503C329.373 135.195 349.606 90.6593 383.088 57.1162C416.571 23.5732 461.043 3.28648 508.297 1.80729e-08C512.644 1.80729e-08 517.118 1.80729e-08 521.72 1.80729e-08C573.656 -0.000704278 623.481 20.5834 660.301 57.2524C697.121 93.9214 717.942 143.693 718.212 195.685C718.212 198.117 718.212 200.421 718.212 202.98C726.941 201.35 735.796 200.493 744.675 200.421C783.68 200.522 821.054 216.097 848.611 243.732C876.167 271.366 891.659 308.809 891.693 347.857V347.857Z" fill="#00AAC8"/>
<path d="M891.693 347.857C891.659 386.983 876.119 424.497 848.483 452.163C820.847 479.829 783.375 495.387 744.292 495.421H508.297V1.80728e-08C512.643 1.80728e-08 517.118 1.80728e-08 521.72 1.80728e-08C573.656 -0.000704278 623.481 20.5834 660.301 57.2524C697.121 93.9214 717.942 143.693 718.212 195.685C718.212 198.117 718.212 200.421 718.212 202.98C726.941 201.35 735.796 200.493 744.675 200.421C783.68 200.522 821.054 216.097 848.611 243.732C876.167 271.366 891.659 308.809 891.693 347.857V347.857Z" fill="#00B4D2"/>
<path d="M670.528 196.197H651.352C651.352 161.632 637.644 128.479 613.242 104.026C588.839 79.572 555.737 65.817 521.209 65.7831C517.118 65.7831 513.155 65.7831 509.192 66.423L507.402 47.2256C512.005 47.2256 516.607 47.2256 521.209 47.2256C560.702 47.2927 598.565 62.9932 626.539 90.9017C654.512 118.81 670.325 156.661 670.528 196.197V196.197Z" fill="white"/>
</svg>
