<svg width="964" height="840" viewBox="0 0 964 840" fill="none" xmlns="http://www.w3.org/2000/svg">
<path d="M963.693 347.857C963.659 386.983 948.119 424.497 920.483 452.163C892.847 479.829 855.375 495.387 816.292 495.421H199.841C165.936 495.421 133.419 481.937 109.444 457.936C85.4689 433.934 72 401.381 72 367.438C72 333.495 85.4689 300.942 109.444 276.941C133.419 252.939 165.936 239.456 199.841 239.456C221.758 239.43 243.303 245.12 262.356 255.965C259.236 247.389 257.593 238.344 257.498 229.217C257.452 212.777 262.593 196.741 272.185 183.398C281.778 170.054 295.334 160.082 310.921 154.904C326.508 149.727 343.329 149.607 358.988 154.563C374.646 159.519 388.342 169.297 398.123 182.503C401.373 135.195 421.606 90.6593 455.088 57.1162C488.571 23.5732 533.043 3.28648 580.297 1.80729e-08C584.644 1.80729e-08 589.118 1.80729e-08 593.72 1.80729e-08C645.656 -0.000704278 695.481 20.5834 732.301 57.2524C769.121 93.9214 789.942 143.693 790.212 195.685C790.212 198.117 790.212 200.421 790.212 202.98C798.941 201.35 807.796 200.493 816.675 200.421C855.68 200.522 893.054 216.097 920.611 243.732C948.167 271.366 963.659 308.809 963.693 347.857V347.857Z" fill="#00AAC8"/>
<path d="M742.528 196.197H723.352C723.352 161.632 709.644 128.479 685.242 104.026C660.839 79.572 627.737 65.817 593.209 65.7831C589.118 65.7831 585.155 65.7831 581.192 66.423L579.402 47.2256C584.005 47.2256 588.607 47.2256 593.209 47.2256C632.702 47.2927 670.565 62.9932 698.539 90.9017C726.512 118.81 742.325 156.661 742.528 196.197V196.197Z" fill="white"/>
<path d="M891.693 486.857C891.659 525.983 876.119 563.497 848.483 591.163C820.847 618.829 783.375 634.387 744.292 634.421H127.841C93.9357 634.421 61.4187 620.937 37.4438 596.936C13.4689 572.934 0 540.381 0 506.438C0 472.495 13.4689 439.942 37.4438 415.941C61.4187 391.939 93.9357 378.456 127.841 378.456C149.758 378.43 171.303 384.12 190.356 394.965C187.236 386.389 185.593 377.344 185.498 368.217C185.452 351.777 190.593 335.741 200.185 322.398C209.778 309.054 223.334 299.082 238.921 293.904C254.508 288.727 271.329 288.607 286.988 293.563C302.646 298.519 316.342 308.297 326.123 321.503C329.373 274.195 349.606 229.659 383.088 196.116C416.571 162.573 461.043 142.286 508.297 139C512.644 139 517.118 139 521.72 139C573.656 138.999 623.481 159.583 660.301 196.252C697.121 232.921 717.942 282.693 718.212 334.685C718.212 337.117 718.212 339.421 718.212 341.98C726.941 340.35 735.796 339.493 744.675 339.421C783.68 339.522 821.054 355.097 848.611 382.732C876.167 410.366 891.659 447.809 891.693 486.857V486.857Z" fill="#2ADDFB"/>
<path d="M670.528 335.197H651.352C651.352 300.632 637.644 267.479 613.242 243.026C588.839 218.572 555.737 204.817 521.209 204.783C517.118 204.783 513.155 204.783 509.192 205.423L507.402 186.226C512.005 186.226 516.607 186.226 521.209 186.226C560.702 186.293 598.565 201.993 626.539 229.902C654.512 257.81 670.325 295.661 670.528 335.197V335.197Z" fill="white"/>
<path d="M53.9087 693.1C53.9087 693.1 7.86838 725.695 6.0668 747.514C4.26522 769.333 39.4294 779.809 48.3372 749.549C53.7774 731.26 55.6686 712.1 53.9087 693.1V693.1Z" fill="url(#paint0_radial_638_285)"/>
<path style="mix-blend-mode:multiply" opacity="0.6" d="M53.5993 693.3C53.5993 704.944 47.9944 727.764 46.7266 733.669C44.5247 743.911 40.7881 752.419 31.1129 757.256C15.566 764.963 5.49046 749.416 9.99441 736.538C7.91421 739.874 6.5719 743.617 6.05763 747.514C4.3895 769.467 39.4202 779.809 48.3947 749.449C53.8125 731.156 55.681 711.995 53.8996 693L53.5993 693.3Z" fill="url(#paint1_radial_638_285)"/>
<path d="M36.0981 729.599C33.1622 739.608 21.7188 736.071 22.286 728.932C22.8532 721.792 37.933 711.149 37.933 711.149C38.5066 717.36 37.8837 723.623 36.0981 729.599V729.599Z" fill="white"/>
<path d="M225.064 693.1C225.064 693.1 179.024 725.695 177.256 747.514C175.488 769.333 210.618 779.809 219.526 749.549C224.942 731.256 226.822 712.097 225.064 693.1Z" fill="url(#paint2_radial_638_285)"/>
<path style="mix-blend-mode:multiply" opacity="0.6" d="M224.762 693.3C224.762 704.944 219.124 727.764 217.889 733.669C215.687 743.911 211.951 752.419 202.242 757.256C186.729 764.963 176.653 749.416 181.124 736.538C179.096 739.893 177.778 743.629 177.254 747.514C175.519 769.333 210.616 779.809 219.524 749.549C224.94 731.256 226.82 712.097 225.062 693.1L224.762 693.3Z" fill="url(#paint3_radial_638_285)"/>
<path d="M207.37 729.599C204.401 739.608 192.957 736.071 193.558 728.932C194.158 721.792 209.172 711.149 209.172 711.149C209.747 717.358 209.136 723.619 207.37 729.599V729.599Z" fill="white"/>
<path d="M401.318 693.1C401.318 693.1 355.277 725.695 353.543 747.514C351.808 769.333 386.905 779.809 395.78 749.549C401.218 731.26 403.098 712.097 401.318 693.1V693.1Z" fill="url(#paint4_radial_638_285)"/>
<path style="mix-blend-mode:multiply" opacity="0.6" d="M401.018 693.3C401.018 704.944 395.413 727.764 394.145 733.669C391.943 743.911 388.206 752.419 378.531 757.256C362.984 764.963 352.909 749.416 357.413 736.538C355.356 739.88 354.036 743.622 353.543 747.514C351.808 769.333 386.905 779.809 395.78 749.549C401.218 731.26 403.098 712.097 401.318 693.1L401.018 693.3Z" fill="url(#paint5_radial_638_285)"/>
<path d="M383.632 729.599C380.696 739.608 369.219 736.071 369.82 728.932C370.42 721.792 385.433 711.149 385.433 711.149C386.029 717.358 385.418 723.623 383.632 729.599V729.599Z" fill="white"/>
<path d="M572.433 693.1C572.433 693.1 526.426 725.695 524.658 747.514C522.89 769.333 558.021 779.809 566.929 749.549C572.346 731.256 574.215 712.095 572.433 693.1V693.1Z" fill="url(#paint6_radial_638_285)"/>
<path style="mix-blend-mode:multiply" opacity="0.6" d="M572.131 693.3C572.131 704.944 566.526 727.764 565.258 733.669C563.056 743.911 559.353 752.419 549.644 757.256C534.097 764.963 524.022 749.416 528.526 736.538C526.469 739.88 525.15 743.622 524.656 747.514C522.921 769.333 558.018 779.809 566.926 749.549C572.344 731.256 574.213 712.095 572.431 693.1L572.131 693.3Z" fill="url(#paint7_radial_638_285)"/>
<path d="M554.788 729.599C551.818 739.608 540.375 736.071 540.942 728.932C541.509 721.792 556.589 711.149 556.589 711.149C557.165 717.358 556.553 723.619 554.788 729.599V729.599Z" fill="white"/>
<path d="M741.885 693.1C741.885 693.1 695.844 725.695 694.076 747.514C692.308 769.333 727.439 779.809 736.347 749.549C741.763 731.256 743.642 712.097 741.885 693.1V693.1Z" fill="url(#paint8_radial_638_285)"/>
<path style="mix-blend-mode:multiply" opacity="0.6" d="M741.549 693.3C741.549 704.944 735.944 727.764 734.676 733.669C732.474 743.911 728.771 752.419 719.062 757.256C703.549 764.963 693.473 749.416 697.944 736.538C695.902 739.887 694.583 743.626 694.074 747.514C692.339 769.333 727.436 779.809 736.344 749.549C741.76 731.256 743.64 712.097 741.882 693.1L741.549 693.3Z" fill="url(#paint9_radial_638_285)"/>
<path d="M724.169 729.599C721.233 739.608 709.789 736.071 710.39 728.932C710.991 721.792 726.004 711.149 726.004 711.149C726.577 717.36 725.954 723.623 724.169 729.599Z" fill="white"/>
<path d="M125.24 764.763C125.24 764.763 79.1993 797.358 77.4645 819.177C75.7296 840.996 110.827 851.472 119.735 821.212C125.153 802.919 127.022 783.758 125.24 764.763V764.763Z" fill="url(#paint10_radial_638_285)"/>
<path style="mix-blend-mode:multiply" opacity="0.6" d="M124.939 764.963C124.939 776.606 119.335 799.426 118.067 805.365C115.865 815.574 112.162 824.048 102.453 828.919C86.9061 836.626 76.8306 821.079 81.3345 808.201C79.2824 811.545 77.9633 815.286 77.4645 819.177C75.7296 840.996 110.827 851.472 119.735 821.212C125.153 802.919 127.022 783.758 125.24 764.763L124.939 764.963Z" fill="url(#paint11_radial_638_285)"/>
<path d="M107.551 801.262C104.615 811.27 93.172 807.734 93.7391 800.594C94.3063 793.455 109.486 782.812 109.486 782.812C110.027 789.029 109.371 795.292 107.551 801.262V801.262Z" fill="white"/>
<path d="M296.314 764.763C296.314 764.763 250.274 797.358 248.539 819.177C246.804 840.996 281.901 851.472 290.776 821.212C296.192 802.919 298.071 783.76 296.314 764.763V764.763Z" fill="url(#paint12_radial_638_285)"/>
<path style="mix-blend-mode:multiply" opacity="0.6" d="M296.094 764.963C296.094 776.606 290.456 799.426 289.221 805.365C287.019 815.574 283.283 824.048 273.574 828.919C258.061 836.626 247.985 821.079 252.456 808.201C250.427 811.553 249.12 815.291 248.619 819.177C246.851 840.996 281.982 851.472 290.856 821.212C296.25 802.914 298.107 783.756 296.328 764.763L296.094 764.963Z" fill="url(#paint13_radial_638_285)"/>
<path d="M278.706 801.262C275.737 811.27 264.293 807.734 264.894 800.594C265.494 793.455 280.508 782.812 280.508 782.812C281.083 789.02 280.471 795.282 278.706 801.262Z" fill="white"/>
<path d="M472.642 764.763C472.642 764.763 426.602 797.358 424.867 819.177C423.132 840.996 458.229 851.472 467.104 821.212C472.542 802.923 474.422 783.76 472.642 764.763V764.763Z" fill="url(#paint14_radial_638_285)"/>
<path style="mix-blend-mode:multiply" opacity="0.6" d="M472.342 764.963C472.342 776.606 466.737 799.426 465.469 805.365C463.267 815.574 459.531 824.048 449.855 828.919C434.308 836.626 424.233 821.079 428.737 808.201C426.685 811.545 425.366 815.286 424.867 819.177C423.132 840.996 458.229 851.472 467.104 821.212C472.542 802.923 474.422 783.76 472.642 764.763L472.342 764.963Z" fill="url(#paint15_radial_638_285)"/>
<path d="M454.954 801.262C452.018 811.27 440.574 807.734 441.141 800.594C441.709 793.455 456.789 782.812 456.789 782.812C457.362 789.023 456.739 795.286 454.954 801.262V801.262Z" fill="white"/>
<path d="M643.758 764.763C643.758 764.763 597.751 797.358 595.982 819.177C594.214 840.996 629.345 851.472 638.253 821.212C643.671 802.919 645.54 783.758 643.758 764.763V764.763Z" fill="url(#paint16_radial_638_285)"/>
<path style="mix-blend-mode:multiply" opacity="0.6" d="M643.488 764.963C643.488 776.606 637.85 799.426 636.582 805.365C634.38 815.574 630.677 824.048 620.969 828.919C605.455 836.626 595.38 821.079 599.85 808.201C597.798 811.545 596.479 815.286 595.98 819.177C594.245 840.996 629.343 851.472 638.25 821.212C643.669 802.919 645.538 783.758 643.755 764.763L643.488 764.963Z" fill="url(#paint17_radial_638_285)"/>
<path d="M626.112 801.262C623.143 811.27 611.699 807.734 612.266 800.594C612.834 793.455 627.914 782.812 627.914 782.812C628.489 789.02 627.877 795.282 626.112 801.262V801.262Z" fill="white"/>
<defs>
<radialGradient id="paint0_radial_638_285" cx="0" cy="0" r="1" gradientUnits="userSpaceOnUse" gradientTransform="translate(7.00095 711.349) scale(59.4521)">
<stop offset="0.1" stop-color="#BCBCBC"/>
<stop offset="0.54" stop-color="#92BAC0"/>
<stop offset="1" stop-color="#549CC6"/>
</radialGradient>
<radialGradient id="paint1_radial_638_285" cx="0" cy="0" r="1" gradientUnits="userSpaceOnUse" gradientTransform="translate(6.99178 711.349) scale(59.4521)">
<stop offset="0.68" stop-color="#92BAC0"/>
<stop offset="1" stop-color="#549CC6"/>
</radialGradient>
<radialGradient id="paint2_radial_638_285" cx="0" cy="0" r="1" gradientUnits="userSpaceOnUse" gradientTransform="translate(2678.92 12097.6) scale(864.473 1340.73)">
<stop offset="0.1" stop-color="#BCBCBC"/>
<stop offset="0.54" stop-color="#92BAC0"/>
<stop offset="1" stop-color="#549CC6"/>
</radialGradient>
<radialGradient id="paint3_radial_638_285" cx="0" cy="0" r="1" gradientUnits="userSpaceOnUse" gradientTransform="translate(2678.8 12097.6) scale(864.432 1340.73)">
<stop offset="0.68" stop-color="#92BAC0"/>
<stop offset="1" stop-color="#549CC6"/>
</radialGradient>
<radialGradient id="paint4_radial_638_285" cx="0" cy="0" r="1" gradientUnits="userSpaceOnUse" gradientTransform="translate(5416.11 12097.6) scale(864.055 1340.73)">
<stop offset="0.1" stop-color="#BCBCBC"/>
<stop offset="0.54" stop-color="#92BAC0"/>
<stop offset="1" stop-color="#549CC6"/>
</radialGradient>
<radialGradient id="paint5_radial_638_285" cx="0" cy="0" r="1" gradientUnits="userSpaceOnUse" gradientTransform="translate(5416.11 12097.6) scale(864.055 1340.73)">
<stop offset="0.68" stop-color="#92BAC0"/>
<stop offset="1" stop-color="#549CC6"/>
</radialGradient>
<radialGradient id="paint6_radial_638_285" cx="0" cy="0" r="1" gradientUnits="userSpaceOnUse" gradientTransform="translate(8074.99 12097.6) scale(864.149 1340.73)">
<stop offset="0.1" stop-color="#BCBCBC"/>
<stop offset="0.54" stop-color="#92BAC0"/>
<stop offset="1" stop-color="#549CC6"/>
</radialGradient>
<radialGradient id="paint7_radial_638_285" cx="0" cy="0" r="1" gradientUnits="userSpaceOnUse" gradientTransform="translate(8074.63 12097.6) scale(864.108 1340.73)">
<stop offset="0.68" stop-color="#92BAC0"/>
<stop offset="1" stop-color="#549CC6"/>
</radialGradient>
<radialGradient id="paint8_radial_638_285" cx="0" cy="0" r="1" gradientUnits="userSpaceOnUse" gradientTransform="translate(10710.6 12097.6) scale(864.473 1340.73)">
<stop offset="0.1" stop-color="#BCBCBC"/>
<stop offset="0.54" stop-color="#92BAC0"/>
<stop offset="1" stop-color="#549CC6"/>
</radialGradient>
<radialGradient id="paint9_radial_638_285" cx="0" cy="0" r="1" gradientUnits="userSpaceOnUse" gradientTransform="translate(10710.2 12097.6) scale(864.432 1340.73)">
<stop offset="0.68" stop-color="#92BAC0"/>
<stop offset="1" stop-color="#549CC6"/>
</radialGradient>
<radialGradient id="paint10_radial_638_285" cx="0" cy="0" r="1" gradientUnits="userSpaceOnUse" gradientTransform="translate(1127.73 13785.3) scale(864.117 1340.73)">
<stop offset="0.1" stop-color="#BCBCBC"/>
<stop offset="0.54" stop-color="#92BAC0"/>
<stop offset="1" stop-color="#549CC6"/>
</radialGradient>
<radialGradient id="paint11_radial_638_285" cx="0" cy="0" r="1" gradientUnits="userSpaceOnUse" gradientTransform="translate(1127.73 13785.3) scale(864.117 1340.73)">
<stop offset="0.68" stop-color="#92BAC0"/>
<stop offset="1" stop-color="#549CC6"/>
</radialGradient>
<radialGradient id="paint12_radial_638_285" cx="0" cy="0" r="1" gradientUnits="userSpaceOnUse" gradientTransform="translate(3785.26 13785.3) scale(863.837 1340.73)">
<stop offset="0.1" stop-color="#BCBCBC"/>
<stop offset="0.54" stop-color="#92BAC0"/>
<stop offset="1" stop-color="#549CC6"/>
</radialGradient>
<radialGradient id="paint13_radial_638_285" cx="0" cy="0" r="1" gradientUnits="userSpaceOnUse" gradientTransform="translate(3781.81 13785.3) scale(862.974 1340.73)">
<stop offset="0.68" stop-color="#92BAC0"/>
<stop offset="1" stop-color="#549CC6"/>
</radialGradient>
<radialGradient id="paint14_radial_638_285" cx="0" cy="0" r="1" gradientUnits="userSpaceOnUse" gradientTransform="translate(6524.11 13785.3) scale(864.056 1340.73)">
<stop offset="0.1" stop-color="#BCBCBC"/>
<stop offset="0.54" stop-color="#92BAC0"/>
<stop offset="1" stop-color="#549CC6"/>
</radialGradient>
<radialGradient id="paint15_radial_638_285" cx="0" cy="0" r="1" gradientUnits="userSpaceOnUse" gradientTransform="translate(6524.11 13785.3) scale(864.056 1340.73)">
<stop offset="0.68" stop-color="#92BAC0"/>
<stop offset="1" stop-color="#549CC6"/>
</radialGradient>
<radialGradient id="paint16_radial_638_285" cx="0" cy="0" r="1" gradientUnits="userSpaceOnUse" gradientTransform="translate(9183.18 13785.3) scale(864.157 1340.73)">
<stop offset="0.1" stop-color="#BCBCBC"/>
<stop offset="0.54" stop-color="#92BAC0"/>
<stop offset="1" stop-color="#549CC6"/>
</radialGradient>
<radialGradient id="paint17_radial_638_285" cx="0" cy="0" r="1" gradientUnits="userSpaceOnUse" gradientTransform="translate(9182.77 13785.3) scale(864.116 1340.73)">
<stop offset="0.68" stop-color="#92BAC0"/>
<stop offset="1" stop-color="#549CC6"/>
</radialGradient>
</defs>
</svg>
