<svg width="564" height="565" viewBox="0 0 564 565" fill="none" xmlns="http://www.w3.org/2000/svg">
<path d="M520.266 380.934L483.033 359.415L511.674 351.69C520.707 349.263 526.104 339.883 523.681 330.834L519.275 314.392C516.851 305.343 507.488 299.936 498.455 302.363L420.465 323.33L350.075 282.5L420.354 241.78L498.345 262.747C507.378 265.175 516.741 259.768 519.165 250.719L523.571 234.276C525.994 225.228 520.597 215.848 511.564 213.42L482.923 205.695L520.156 184.177C528.308 179.432 531.061 169.059 526.435 160.893L509.361 131.318C504.624 123.152 494.269 120.394 486.118 125.028L448.885 146.547L456.596 117.855C459.019 108.807 453.622 99.4268 444.589 96.999L428.176 92.585C419.143 90.1572 409.779 95.5645 407.356 104.613L386.426 182.742L317.248 222.689V137.167L376.402 77.9082C383.232 71.0664 383.232 59.8105 376.402 52.9688L363.954 40.499C357.125 33.6572 345.889 33.6572 339.059 40.499L317.248 62.2383V17.6562C317.248 7.94531 309.317 0 299.623 0H264.373C254.679 0 246.748 7.94531 246.748 17.6562V62.2383L225.047 40.499C218.218 33.6572 206.982 33.6572 200.152 40.499L187.594 52.9688C180.654 59.8105 180.654 71.0664 187.594 77.9082L246.748 137.167V222.689L177.57 182.742L156.64 104.613C154.217 95.5645 144.854 90.1572 135.821 92.585L119.408 96.999C110.375 99.4268 104.977 108.807 107.401 117.855L115.112 146.547L77.8787 125.028C69.7272 120.283 59.3725 123.152 54.6358 131.318L37.5615 160.782C32.8248 168.948 35.6889 179.321 43.8404 184.066L81.0732 205.585L52.4326 213.31C43.2897 215.737 37.892 225.117 40.3154 234.276L44.7217 250.719C47.1451 259.768 56.5084 265.175 65.5412 262.747L143.532 241.78L213.812 282.5L143.532 323.22L65.5412 302.253C56.5084 299.825 47.1451 305.232 44.7217 314.281L40.3154 330.724C37.892 339.772 43.2897 349.152 52.3225 351.58L80.9631 359.305L43.7303 380.934C35.5787 385.679 32.8248 396.052 37.4514 404.218L54.5256 433.792C59.2623 441.958 69.617 444.717 77.7686 440.082L115.001 418.563L107.29 447.255C104.867 456.304 110.265 465.684 119.297 468.111L135.711 472.525C144.744 474.953 154.107 469.546 156.53 460.497L177.46 382.368L246.638 342.421V427.943L187.484 487.202C180.544 494.044 180.544 505.3 187.484 512.142L199.932 524.611C206.762 531.453 217.997 531.453 224.827 524.611L246.528 502.872V547.344C246.528 557.055 254.459 565 264.153 565H299.403C309.097 565 317.028 557.055 317.028 547.344V502.762L338.729 524.501C345.558 531.343 356.794 531.343 363.624 524.501L376.072 512.031C382.901 505.189 382.901 493.934 376.072 487.092L317.248 427.833V342.311L386.426 382.258L407.356 460.387C409.779 469.436 419.143 474.843 428.176 472.415L444.589 468.001C453.622 465.573 459.019 456.193 456.596 447.145L448.885 418.453L486.118 439.972C494.269 444.717 504.624 441.848 509.361 433.682L526.435 404.107C531.172 396.052 528.418 385.568 520.266 380.934V380.934Z" fill="white"/>
</svg>
