<svg width="964" height="772" viewBox="0 0 964 772" fill="none" xmlns="http://www.w3.org/2000/svg">
<path d="M963.693 347.857C963.659 386.983 948.119 424.497 920.483 452.163C892.847 479.829 855.375 495.387 816.292 495.421H199.841C165.936 495.421 133.419 481.937 109.444 457.936C85.4689 433.934 72 401.381 72 367.438C72 333.495 85.4689 300.942 109.444 276.941C133.419 252.939 165.936 239.456 199.841 239.456C221.758 239.43 243.303 245.12 262.356 255.965C259.236 247.389 257.593 238.344 257.498 229.217C257.452 212.777 262.593 196.741 272.185 183.398C281.778 170.054 295.334 160.082 310.921 154.904C326.508 149.727 343.329 149.607 358.988 154.563C374.646 159.519 388.342 169.297 398.123 182.503C401.373 135.195 421.606 90.6593 455.088 57.1162C488.571 23.5732 533.043 3.28648 580.297 1.80729e-08C584.644 1.80729e-08 589.118 1.80729e-08 593.72 1.80729e-08C645.656 -0.000704278 695.481 20.5834 732.301 57.2524C769.121 93.9214 789.942 143.693 790.212 195.685C790.212 198.117 790.212 200.421 790.212 202.98C798.941 201.35 807.796 200.493 816.675 200.421C855.68 200.522 893.054 216.097 920.611 243.732C948.167 271.366 963.659 308.809 963.693 347.857V347.857Z" fill="#00AAC8"/>
<path d="M742.528 196.197H723.352C723.352 161.632 709.644 128.479 685.242 104.026C660.839 79.572 627.737 65.817 593.209 65.7831C589.118 65.7831 585.155 65.7831 581.192 66.423L579.402 47.2256C584.005 47.2256 588.607 47.2256 593.209 47.2256C632.702 47.2927 670.565 62.9932 698.539 90.9017C726.512 118.81 742.325 156.661 742.528 196.197V196.197Z" fill="white"/>
<path d="M891.693 486.857C891.659 525.983 876.119 563.497 848.483 591.163C820.847 618.829 783.375 634.387 744.292 634.421H127.841C93.9357 634.421 61.4187 620.937 37.4438 596.936C13.4689 572.934 0 540.381 0 506.438C0 472.495 13.4689 439.942 37.4438 415.941C61.4187 391.939 93.9357 378.456 127.841 378.456C149.758 378.43 171.303 384.12 190.356 394.965C187.236 386.389 185.593 377.344 185.498 368.217C185.452 351.777 190.593 335.741 200.185 322.398C209.778 309.054 223.334 299.082 238.921 293.904C254.508 288.727 271.329 288.607 286.988 293.563C302.646 298.519 316.342 308.297 326.123 321.503C329.373 274.195 349.606 229.659 383.088 196.116C416.571 162.573 461.043 142.286 508.297 139C512.644 139 517.118 139 521.72 139C573.656 138.999 623.481 159.583 660.301 196.252C697.121 232.921 717.942 282.693 718.212 334.685C718.212 337.117 718.212 339.421 718.212 341.98C726.941 340.35 735.796 339.493 744.675 339.421C783.68 339.522 821.054 355.097 848.611 382.732C876.167 410.366 891.659 447.809 891.693 486.857V486.857Z" fill="#2ADDFB"/>
<path d="M670.528 335.197H651.352C651.352 300.632 637.644 267.479 613.242 243.026C588.839 218.572 555.737 204.817 521.209 204.783C517.118 204.783 513.155 204.783 509.192 205.423L507.402 186.226C512.005 186.226 516.607 186.226 521.209 186.226C560.702 186.293 598.565 201.993 626.539 229.902C654.512 257.81 670.325 295.661 670.528 335.197V335.197Z" fill="white"/>
<path d="M534.094 531.574L560.33 454L499.539 549.507H544.333L518.016 627.081C576.168 535.577 565.53 552.389 578.808 531.574H534.094Z" fill="#FFDC00"/>
<path d="M404.431 601.704L451.384 463.607L343 633.726H422.989L375.715 771.823C479.3 608.989 460.343 638.85 484.02 601.704H404.431Z" fill="#FFDC00"/>
<path d="M451.386 463.607L376.357 617.715H451.386L375.637 771.823L484.021 601.704H404.433L451.386 463.607Z" fill="#FFF000"/>
</svg>
